<mxfile host="app.diagrams.net" agent="Mozilla/5.0 (Windows NT 10.0; Win64; x64) AppleWebKit/537.36 (KHTML, like Gecko) Chrome/133.0.0.0 Safari/537.36" version="26.0.11">
  <diagram name="Page-1" id="2X-jKmvlKzTKF6QocnOL">
    <mxGraphModel dx="1434" dy="772" grid="1" gridSize="10" guides="1" tooltips="1" connect="1" arrows="1" fold="1" page="1" pageScale="1" pageWidth="850" pageHeight="1100" math="0" shadow="0">
      <root>
        <mxCell id="0" />
        <mxCell id="1" parent="0" />
        <mxCell id="AtlcvP2rp3GEtAvRpOyc-3" style="edgeStyle=orthogonalEdgeStyle;rounded=0;orthogonalLoop=1;jettySize=auto;html=1;" edge="1" parent="1" source="AtlcvP2rp3GEtAvRpOyc-1" target="AtlcvP2rp3GEtAvRpOyc-2">
          <mxGeometry relative="1" as="geometry">
            <Array as="points">
              <mxPoint x="315" y="195" />
              <mxPoint x="320" y="195" />
            </Array>
          </mxGeometry>
        </mxCell>
        <mxCell id="AtlcvP2rp3GEtAvRpOyc-1" value="Start" style="ellipse;whiteSpace=wrap;html=1;aspect=fixed;flipH=1;flipV=0;" vertex="1" parent="1">
          <mxGeometry x="285" y="30" width="50" height="50" as="geometry" />
        </mxCell>
        <mxCell id="AtlcvP2rp3GEtAvRpOyc-4" style="edgeStyle=orthogonalEdgeStyle;rounded=0;orthogonalLoop=1;jettySize=auto;html=1;exitX=0.5;exitY=1;exitDx=0;exitDy=0;" edge="1" parent="1" source="AtlcvP2rp3GEtAvRpOyc-2" target="AtlcvP2rp3GEtAvRpOyc-6">
          <mxGeometry relative="1" as="geometry">
            <mxPoint x="311" y="370" as="targetPoint" />
            <Array as="points">
              <mxPoint x="311" y="340" />
              <mxPoint x="311" y="340" />
            </Array>
          </mxGeometry>
        </mxCell>
        <mxCell id="AtlcvP2rp3GEtAvRpOyc-2" value="User Enters Their Email and password" style="rounded=1;whiteSpace=wrap;html=1;" vertex="1" parent="1">
          <mxGeometry x="250" y="240" width="120" height="60" as="geometry" />
        </mxCell>
        <mxCell id="AtlcvP2rp3GEtAvRpOyc-9" style="edgeStyle=orthogonalEdgeStyle;rounded=0;orthogonalLoop=1;jettySize=auto;html=1;exitX=0;exitY=1;exitDx=0;exitDy=0;" edge="1" parent="1" source="AtlcvP2rp3GEtAvRpOyc-6" target="AtlcvP2rp3GEtAvRpOyc-8">
          <mxGeometry relative="1" as="geometry">
            <Array as="points">
              <mxPoint x="275" y="660" />
            </Array>
          </mxGeometry>
        </mxCell>
        <mxCell id="AtlcvP2rp3GEtAvRpOyc-12" style="edgeStyle=orthogonalEdgeStyle;rounded=0;orthogonalLoop=1;jettySize=auto;html=1;exitX=1;exitY=1;exitDx=0;exitDy=0;" edge="1" parent="1" source="AtlcvP2rp3GEtAvRpOyc-6" target="AtlcvP2rp3GEtAvRpOyc-13">
          <mxGeometry relative="1" as="geometry">
            <mxPoint x="520" y="460" as="targetPoint" />
            <Array as="points">
              <mxPoint x="580" y="473" />
            </Array>
          </mxGeometry>
        </mxCell>
        <mxCell id="AtlcvP2rp3GEtAvRpOyc-6" value="Check if credentials are correct" style="rhombus;whiteSpace=wrap;html=1;" vertex="1" parent="1">
          <mxGeometry x="240" y="370" width="140" height="150" as="geometry" />
        </mxCell>
        <mxCell id="AtlcvP2rp3GEtAvRpOyc-18" style="edgeStyle=orthogonalEdgeStyle;rounded=0;orthogonalLoop=1;jettySize=auto;html=1;exitX=0.5;exitY=1;exitDx=0;exitDy=0;entryX=0.5;entryY=0;entryDx=0;entryDy=0;" edge="1" parent="1" source="AtlcvP2rp3GEtAvRpOyc-8" target="AtlcvP2rp3GEtAvRpOyc-17">
          <mxGeometry relative="1" as="geometry" />
        </mxCell>
        <mxCell id="AtlcvP2rp3GEtAvRpOyc-8" value="Redirect user to homepage" style="rounded=1;whiteSpace=wrap;html=1;" vertex="1" parent="1">
          <mxGeometry x="210" y="630" width="120" height="60" as="geometry" />
        </mxCell>
        <mxCell id="AtlcvP2rp3GEtAvRpOyc-10" value="yes" style="text;html=1;align=center;verticalAlign=middle;resizable=0;points=[];autosize=1;strokeColor=none;fillColor=none;" vertex="1" parent="1">
          <mxGeometry x="280" y="560" width="40" height="30" as="geometry" />
        </mxCell>
        <mxCell id="AtlcvP2rp3GEtAvRpOyc-16" style="edgeStyle=orthogonalEdgeStyle;rounded=0;orthogonalLoop=1;jettySize=auto;html=1;exitX=0.5;exitY=0;exitDx=0;exitDy=0;entryX=1;entryY=0.5;entryDx=0;entryDy=0;" edge="1" parent="1" source="AtlcvP2rp3GEtAvRpOyc-13" target="AtlcvP2rp3GEtAvRpOyc-2">
          <mxGeometry relative="1" as="geometry" />
        </mxCell>
        <mxCell id="AtlcvP2rp3GEtAvRpOyc-13" value="Incorrect Credentials User Message" style="rounded=1;whiteSpace=wrap;html=1;" vertex="1" parent="1">
          <mxGeometry x="520" y="340" width="120" height="60" as="geometry" />
        </mxCell>
        <mxCell id="AtlcvP2rp3GEtAvRpOyc-15" value="no" style="text;html=1;align=center;verticalAlign=middle;resizable=0;points=[];autosize=1;strokeColor=none;fillColor=none;" vertex="1" parent="1">
          <mxGeometry x="420" y="440" width="40" height="30" as="geometry" />
        </mxCell>
        <mxCell id="AtlcvP2rp3GEtAvRpOyc-17" value="End" style="ellipse;whiteSpace=wrap;html=1;aspect=fixed;" vertex="1" parent="1">
          <mxGeometry x="245" y="760" width="50" height="50" as="geometry" />
        </mxCell>
        <mxCell id="AtlcvP2rp3GEtAvRpOyc-19" value="User Enters the login Page" style="rounded=1;whiteSpace=wrap;html=1;" vertex="1" parent="1">
          <mxGeometry x="245" y="120" width="120" height="60" as="geometry" />
        </mxCell>
      </root>
    </mxGraphModel>
  </diagram>
</mxfile>
